<svg width="153" height="214" viewBox="0 0 153 214" fill="none" xmlns="http://www.w3.org/2000/svg">
<g id="Group" opacity="0.3">
<path id="Vector" d="M153.615 135.694C154.726 135.917 154.107 137.689 152.996 137.466C150.683 137.004 148.368 136.551 146.033 136.157L163.507 153.352C166.009 155.814 161.608 160.287 159.106 157.825L146.287 145.211L143.627 146.001C142.398 146.366 142.136 146.65 143.139 145.594L144.848 143.795L136.199 135.284C135.594 134.689 135.902 134.81 135.039 134.727C126.3 133.888 115.86 134.788 107.945 133.189C103.308 132.251 101.168 131.02 97.912 127.612C95.2533 124.829 89.6633 117.58 89.0772 113.531C88.7925 111.564 89.2885 109.605 90.7926 106.887C89.9395 103.203 90.107 98.0463 90.2613 93.3013C90.2974 92.1902 90.3328 91.1007 90.3534 90.172L86.6477 86.5255L83.5262 87.4526C82.6993 87.7109 82.6354 87.8358 83.2845 87.1526L85.2173 85.1183L79.3328 79.3276C79.4965 83.8009 75.9246 86.7504 72.3908 89.6679C71.4176 90.4714 70.4474 91.2723 69.6216 92.0552C69.3326 92.3293 69.0662 92.6606 68.7247 92.8598C67.8872 93.3481 67.4029 93.1697 66.8045 91.876C65.9947 90.1253 67.3242 88.858 69.0315 87.2307C70.5606 85.773 72.491 83.9324 72.8036 81.1284C68.1715 85.5387 62.6283 88.251 56.6937 88.3826C54.9401 88.4215 54.2774 88.1424 54.3865 87.3611C54.4843 86.6602 55.1542 86.3524 56.1735 85.8844C59.2331 84.4785 62.4217 82.7484 65.1439 80.6275C62.0535 79.5555 59.5902 77.4869 56.8737 75.8356C55.7362 76.459 54.669 76.7354 53.7167 76.7206C51.203 76.6817 49.6811 74.6297 49.559 72.2364C49.5188 71.4501 49.4777 70.6462 47.7243 68.7896C45.8838 66.8409 46.056 64.596 47.2252 62.3143C48.2764 60.2626 50.1641 58.2187 52.0388 56.3746C53.8304 52.254 57.7912 48.5669 62.0115 47.1598C66.6692 42.6716 77.195 38.2918 77.9108 46.3724C78.0109 47.5014 77.6893 48.3472 77.9661 49.4774C78.3668 51.1128 79.5829 52.8558 80.8812 54.7162C82.2342 56.6552 83.6666 58.7094 84.4836 60.9772C85.3202 59.885 86.1781 58.6219 86.9979 57.2751C88.0843 55.4906 89.107 53.5553 89.9299 51.6699C90.2266 50.9893 90.5995 49.8389 91.4361 49.7042C92.2155 49.5785 92.5091 50.2322 92.508 51.9816C92.5058 55.2709 91.7098 58.3628 90.3651 61.1938C89.1695 63.7108 87.5389 66.0195 85.6475 68.0749C88.4468 67.7175 90.2563 65.7572 91.6892 64.2046C93.2889 62.4713 94.5345 61.1216 96.2981 61.903C98.1137 62.7074 97.785 63.3421 96.5227 64.7169C95.7532 65.5552 94.9681 66.5381 94.1804 67.5241C91.2216 71.228 88.2289 74.9728 83.4843 74.6087L91.3483 82.3468C91.9624 81.1468 92.9119 80.3149 94.213 80.0248C98.41 79.0891 98.7361 83.13 99.0355 86.84C99.1275 87.9795 99.2586 89.1012 99.3654 90.236L102.136 92.9617C102.613 92.4726 103.055 92.0309 103.449 91.6495C106.54 88.6633 113.566 86.8337 113.213 92.2722C115.658 92.1466 118.68 93.867 121.3 95.3588C126.876 98.5336 129.034 100.545 133.075 105.557C134.806 107.703 136.637 109.95 138.754 111.722C142.446 114.816 147.383 116.932 155.72 116.47C156.898 116.407 156.702 118.211 155.524 118.274C148.433 118.666 143.675 117.317 140.062 115.093C140.204 115.463 140.32 115.827 140.407 116.184C140.519 116.645 140.217 117.173 139.732 117.363C139.248 117.552 138.764 117.332 138.652 116.871C138.405 115.86 137.873 114.75 137.117 113.584C135.58 111.212 133.4 109.048 131.608 106.826C127.703 101.982 125.597 100.02 120.229 96.9638C117.634 95.4862 114.601 93.7596 112.756 94.0889C111.894 96.1376 110.172 97.7457 108.627 99.3495L109.789 100.492C111.334 99.5296 114.181 98.4902 116.793 97.9763C120.892 97.17 124.871 99.7089 121.194 103.53C120.432 104.322 119.397 105.025 118.337 105.562C119.611 105.394 120.995 105.468 122.511 105.879C124.336 106.374 125.589 106.878 126.347 107.538C128.881 109.743 126.173 112.723 123.564 114.048L132.455 122.796L134.331 120.955C135.443 119.863 135.188 120.065 134.81 121.414L134.017 124.252C133.978 124.392 142.885 133.059 143.766 133.926C147.083 134.418 150.35 135.042 153.615 135.694ZM90.9122 146.685C90.217 146.657 90.4325 145.575 91.1277 145.602C96.1305 145.788 99.2784 149.899 100.228 154.437C100.369 155.102 99.3122 155.484 99.1716 154.819C98.3086 150.697 95.4779 146.854 90.9122 146.685ZM84.2605 163.329C84.8117 164.279 83.2151 165.367 82.6638 164.417C82.0954 163.435 81.4739 162.493 81.01 161.442C69.5627 167.353 70.3968 180.727 80.896 181.084C86.2886 181.267 93.9457 177.578 102.814 166.832C104.282 159.37 103.943 151.012 98.8332 146.018C93.7294 141.029 83.3872 141.211 81.5217 150.691C80.5608 155.575 82.0978 159.592 84.2605 163.329ZM80.4467 159.84C79.3906 156.306 79.2468 153.218 79.7577 150.621C81.9249 139.607 94.0693 138.647 100.195 144.634C105.739 150.054 106.169 159.032 104.531 167.142C104.5 167.317 104.42 167.485 104.301 167.629C94.8578 179.149 86.5102 183.089 80.5466 182.886C68.2927 182.47 67.1859 166.646 80.4467 159.84ZM153.082 55.1232C152.757 54.551 153.717 53.9068 154.042 54.4792C156.524 58.8709 154.714 64.8361 151.386 69.275C150.927 69.8862 150.102 69.3305 150.56 68.7194C153.602 64.6624 155.36 59.1554 153.082 55.1232ZM135.724 60.8944C135.449 62.0775 133.7 61.947 133.975 60.7639C134.183 59.8619 134.479 58.9641 134.848 58.0832C124.671 52.3013 116.358 64.7824 120.759 73.7513C123.229 78.7843 129.76 82.6397 142.299 81.51C151.699 75.2029 161.461 63.0776 156.2 52.8814C154.283 49.1659 150.97 47.0762 146.301 48.7481C141.31 50.5354 136.883 55.8849 135.724 60.8944ZM135.682 56.3449C137.857 52.3333 141.688 48.5838 145.95 47.0575C151.449 45.0886 155.55 47.442 157.827 51.8552C163.577 62.9994 153.311 76.2214 142.894 83.1146C142.732 83.2222 142.557 83.2791 142.389 83.2883C128.913 84.5576 121.838 80.299 119.115 74.7495C113.986 64.2971 124.104 50.0249 135.682 56.3449ZM85.0157 62.9674C85.1968 64.0264 85.2189 65.1326 85.0229 66.2944C86.5081 64.5753 87.7905 62.6806 88.76 60.6396C89.4842 59.115 90.0333 57.5076 90.3609 55.8297C90.7063 54.0615 90.8272 53.8399 89.9161 55.5379C89.4629 56.3828 88.9854 57.2164 88.4949 58.022C87.3545 59.8953 86.1477 61.6132 85.0157 62.9674ZM83.7422 69.9127C83.3041 70.7289 82.7537 71.571 82.0745 72.4415C86.9424 73.9264 89.9124 70.21 92.844 66.5402C93.5354 65.6747 94.2249 64.8115 94.9673 63.9762C95.407 63.4816 95.4431 63.2305 94.6541 63.6774C94.1673 63.9531 93.5886 64.5801 92.9127 65.3124C90.9297 67.4611 88.3381 70.2684 83.7422 69.9127ZM70.3532 81.1086C69.2342 81.3045 68.1664 81.2943 67.1416 81.1338C65.0514 82.9362 62.5822 84.489 60.1447 85.7954C58.6241 86.6106 58.7638 86.5204 60.3671 86.1856C63.9753 85.4321 67.3501 83.6405 70.3532 81.1086ZM77.1356 77.5568C76.2731 78.2974 75.4382 78.91 74.6287 79.4085C74.9533 83.8653 72.2419 86.4506 70.1589 88.4361C69.3914 89.1677 68.7414 89.7873 68.5051 90.2967C68.1765 91.005 68.394 90.938 68.7964 90.5668C69.6381 89.7901 70.5105 89.0699 71.3854 88.3476C74.9894 85.3721 78.6391 82.3582 77.1356 77.5568ZM75.169 77.0083C74.8874 76.9559 74.6162 76.8678 74.3554 76.7476C71.8121 75.5759 70.7065 71.391 70.3027 68.7192C68.6144 68.944 66.9214 69.6034 65.0826 70.5924C63.1594 71.6269 61.0634 73.0296 58.6573 74.6738C63.5952 77.8494 68.3833 82.0581 75.169 77.0083ZM51.1166 59.7161C50.1721 60.7798 49.344 61.8664 48.8013 62.9255C47.9801 64.5282 47.8504 66.0959 49.1179 67.4379C51.245 69.6901 51.301 70.786 51.3558 71.858C51.4344 73.3994 52.3825 74.8905 54.0315 74.9161C54.8421 74.9287 55.8151 74.6037 56.9004 73.8603C59.7452 71.9118 62.1693 70.2536 64.4407 69.0318C65.8953 68.2494 67.2797 67.6503 68.6552 67.2755C66.3843 66.0789 64.1785 67.1571 61.9889 68.2279C58.7427 69.8155 55.5254 71.3889 52.0303 67.7258C51.2783 66.9438 52.6672 65.5874 53.4193 66.3695C56.1328 69.2135 58.7667 67.9254 61.4241 66.6258C64.2174 65.2597 67.0323 63.8832 70.0752 65.8498C70.0767 63.492 70.5117 60.9929 71.2573 58.6386C72.2273 55.2434 73.5084 53.0755 74.542 51.3264C75.475 49.7479 76.3312 48.3864 76.0983 46.6311C75.4202 41.5227 68.4842 44.1171 65.2536 46.5514C66.1529 46.519 67.0486 46.606 67.925 46.8302C69.016 47.1102 68.3143 48.8651 67.2233 48.5852C61.974 47.2421 55.6316 51.9383 53.5393 57.1801C52.7845 59.0709 52.6076 61.0061 53.2743 62.6856C53.6864 63.716 52.0003 64.6092 51.5881 63.5786C51.105 62.3616 50.9688 61.0511 51.1166 59.7161ZM59.5609 59.9449C60.7196 59.9908 60.3603 61.7943 59.2016 61.7484C53.1294 61.5045 57.1644 51.7927 62.9103 51.3724C65.5629 51.1784 66.7888 54.0277 65.4047 56.3879C64.7194 57.5566 63.5194 58.5863 62.2234 58.8465C61.2942 59.033 60.4278 58.7762 59.9951 58.0101C59.4539 57.0563 61.0544 55.9827 61.5957 56.9367C62.0106 57.6706 63.5311 56.2808 63.8909 55.6672C64.5375 54.5647 64.0521 53.0777 62.7539 53.1726C59.2984 53.4253 55.8137 59.7943 59.5609 59.9449ZM61.4438 64.7706C60.4023 65.5016 59.5381 64.0747 60.5796 63.3437C63.9247 61.0047 70.5912 54.1846 71.1155 49.3409C71.3099 47.544 70.8601 47.0964 70.5045 46.3911C70.1521 45.6919 71.4785 44.9019 71.9594 45.512C72.6074 46.3341 72.9981 48.1036 72.8984 49.104C72.3406 54.7047 65.4998 61.9349 61.4438 64.7706ZM78.6938 75.9652L90.3766 87.461C90.3987 86.4815 90.4655 85.4163 90.6655 84.4087L80.4486 74.3552C79.8397 75.0266 79.2548 75.558 78.6938 75.9652ZM80.5625 71.7942C85.8757 65.1637 82.3561 60.2078 79.3515 55.9019C78.2254 54.2883 77.1552 52.7542 76.5456 51.2068C73.6274 56.2929 71.3853 61.6967 71.9526 67.1597C72.188 69.4266 73.1475 74.0887 75.3169 75.0881C75.8614 75.339 76.5056 75.3196 77.2596 74.91C78.0183 74.4979 79.8598 72.6711 80.5625 71.7942ZM100.789 94.3707L99.6093 93.2095C99.6635 93.9683 99.7116 94.7289 99.7516 95.4909C100.105 95.105 100.452 94.7305 100.789 94.3707ZM107.261 98.3958C108.86 96.772 110.966 94.7964 111.391 92.748C112.182 88.9334 106.474 91.0209 104.588 92.8442C100.944 96.3658 94.8523 103.074 92.4194 107.4C91.0834 109.776 90.6332 111.416 90.8612 112.991C91.388 116.63 96.9073 123.75 99.3011 126.256C102.341 129.437 104.272 130.549 108.564 131.416C116.01 132.921 125.514 132.059 133.635 132.761L123.819 123.102C123.145 122.439 122.525 121.79 121.747 121.242C121.19 120.85 120.566 120.48 119.958 120.12C118.815 119.443 117.725 118.798 117.065 118.008C115.979 116.707 115.945 115.231 118.185 113.256C118.587 112.9 119.152 112.896 119.446 113.247C119.643 113.483 119.489 113.462 119.899 113.416C121.215 113.27 122.664 112.729 123.843 111.954C124.984 111.205 126.223 110.004 125.045 108.98C124.468 108.477 123.397 108.062 121.79 107.626C119.573 107.025 117.724 107.269 116.124 107.953C114.489 108.651 113.064 109.822 111.763 111.031C105.993 116.393 109.906 122.218 112.466 126.805C113 127.767 111.39 128.831 110.856 127.87C107.633 122.048 104.165 116.699 109.968 109.755C111.531 107.885 113.694 106.139 116.086 104.957C118.011 104.005 119.499 102.912 120.003 102.39C122.266 100.038 119.245 99.159 116.909 99.7778C114.746 100.351 112.169 101.097 110.736 101.884C107.632 103.589 101.441 110.417 99.8508 113.453C98.7651 115.525 99.1519 117.269 100.176 118.936C101.45 121.008 102.948 123.16 104.549 124.967C105.273 125.778 103.847 127.098 103.123 126.287C101.464 124.414 99.9218 122.204 98.6019 120.056C97.2651 117.881 96.8747 115.51 98.2808 112.826C98.6012 112.215 99.2122 111.3 100.016 110.233C98.8539 106.89 104.616 101.084 107.261 98.3958ZM108.173 101.636L107.28 100.757C106.73 101.337 106.185 101.922 105.662 102.502L106.358 103.186C106.965 102.629 107.574 102.106 108.173 101.636ZM121.621 114.83C120.639 115.128 119.612 115.294 118.625 115.257L160.473 156.436C161.421 157.369 163.089 155.674 162.141 154.741L121.621 114.83ZM104.953 104.538L104.381 103.975C103.135 105.47 102.159 106.872 101.796 108.001C102.8 106.808 103.853 105.646 104.953 104.538ZM98.0171 97.4233C97.9979 96.5798 97.9262 95.1892 97.8159 93.6361C97.6641 91.4975 97.4115 89.401 97.2397 87.2727C97.0069 84.3873 96.7532 81.2443 94.3213 81.7865C93.2402 82.0276 92.7947 83.0391 92.5432 83.9968C92.1343 85.5538 92.1141 88.734 92.0926 91.1586C92.0529 95.6149 91.6571 100.27 92.2535 104.586C93.9877 102.112 96.009 99.7046 98.0171 97.4233Z" fill="#B98645"/>
</g>
</svg>
